Coordinates
version=1
nRows=15
nColumns=42
inDegrees=yes

Units are S.I. units (second, meters, Newtons, ...)
If the header above contains a line with 'inDegrees', this indicates whether rotational values are in degrees (yes) or radians (no).

endheader
time	pelvis_tilt	pelvis_list	pelvis_rotation	pelvis_tx	pelvis_ty	pelvis_tz	hip_flexion_r	hip_adduction_r	hip_rotation_r	knee_angle_r	knee_adduction_r	knee_angle_r_beta	ankle_angle_r	subtalar_angle_r	mtp_angle_r	hip_flexion_l	hip_adduction_l	hip_rotation_l	knee_angle_l	knee_adduction_l	knee_angle_l_beta	ankle_angle_l	subtalar_angle_l	mtp_angle_l	lumbar_extension	lumbar_bending	lumbar_rotation	arm_flex_r	arm_add_r	arm_rot_r	elbow_flex_r	pro_sup_r	wrist_flex_r	wrist_dev_r	arm_flex_l	arm_add_l	arm_rot_l	elbow_flex_l	pro_sup_l	wrist_flex_l	wrist_dev_l
      2.82000000	     10.59546436	      8.97045954	     -0.39662139	      0.02718474	      0.90270865	      0.27000316	     27.91542439	    -10.18405076	    -25.18901470	     33.90812020	    -12.20527226	      0.59180834	      9.82546686	     19.85268824	     -7.50117664	    -17.59459617	     16.11522156	    -19.89521915	     21.31986024	    -12.99783399	      0.37210176	     28.89654242	     22.44090751	     -7.50117664	    -41.11163470	     -6.21816424	     -3.58032143	      9.24646332	     -8.22202410	      3.93664605	     35.69240198	     90.00000001	      0.00000000	      0.00000000	     -6.94184995	    -13.01146268	     15.59471516	     42.65234680	     90.00000001	      0.00000000	      0.00000000
      2.83000000	     10.68888340	      8.76568643	     -0.49365275	      0.03568719	      0.90373204	      0.27135801	     27.48481469	     -9.98443744	    -25.20159528	     34.56975993	    -12.22595010	      0.60335613	      9.80138720	     19.72132751	     -7.50116347	    -17.92970802	     15.69634794	    -19.38258364	     22.07047497	    -12.91525133	      0.38520246	     28.43686969	     22.18599117	     -7.50116347	    -41.12068252	     -5.86757565	     -3.36724184	      9.26526212	     -8.32392391	      3.92204080	     35.63150239	     90.00000001	      0.00000000	      0.00000000	     -7.10843499	    -12.78947796	     15.52916107	     42.54493164	     90.00000001	      0.00000000	      0.00000000
      2.84000000	     10.74263578	      8.59556765	     -0.62709536	      0.04410953	      0.90507831	      0.27282838	     27.08134189	     -9.72445204	    -24.75000887	     35.23471780	    -12.10122420	      0.61496184	      9.96469149	     18.94806525	     -7.50108667	    -18.38331265	     15.50903829	    -17.64525908	     22.71983069	    -12.57604280	      0.39653585	     27.24350253	     19.48056331	     -7.50108667	    -41.09649704	     -5.56612580	     -3.23483831	      9.49636039	     -8.38019577	      4.06919322	     35.10145485	     90.00000001	      0.00000000	      0.00000000	     -7.10216542	    -12.27998420	     14.64615394	     41.68846682	     90.00000001	      0.00000000	      0.00000000
      2.85000000	     10.85493388	      8.38962143	     -0.83162191	      0.05264893	      0.90653607	      0.27452317	     26.65213362	     -9.39571022	    -24.46524344	     35.91055993	    -12.12092426	      0.62675751	     10.15947469	     18.84139503	     -7.50107750	    -18.73093372	     15.04956341	    -17.23564288	     23.42984857	    -12.34632311	      0.40892800	     26.67117969	     19.40446184	     -7.50107750	    -41.11491399	     -5.27880340	     -3.01995864	      9.55014157	     -8.48299551	      4.06469057	     35.09898738	     90.00000001	      0.00000000	      0.00000000	     -7.25873921	    -12.05673942	     14.62943266	     41.65222018	     90.00000001	      0.00000000	      0.00000000
      2.86000000	     10.90829527	      8.24020093	     -1.02853628	      0.06105103	      0.90830566	      0.27635736	     26.14064030	     -8.96298325	    -23.06146811	     36.50955140	    -11.62341019	      0.63721188	     10.73741587	     16.87782218	     -7.50099644	    -19.12044115	     14.74976025	    -15.80628418	     24.11252740	    -11.80663563	      0.42084299	     25.05502309	     16.98531545	     -7.50099644	    -41.11434920	     -5.08115290	     -2.87734146	      9.72053413	     -8.55898574	      4.38830039	     34.78563435	     90.00000001	      0.00000000	      0.00000000	     -7.32191725	    -11.62395097	     13.87383013	     41.09191366	     90.00000001	      0.00000000	      0.00000000
      2.87000000	     11.02100926	      8.05666156	     -1.25245215	      0.06958044	      0.91010724	      0.27835737	     25.60601333	     -8.53842248	    -22.36070866	     37.03686051	    -11.47591979	      0.64641516	     11.45188864	     16.49157688	     -7.50097814	    -19.40589824	     14.20655287	    -15.55933418	     24.88436665	    -11.41026206	      0.43431413	     23.88884204	     16.74909992	     -7.50097814	    -41.14566474	     -4.87546580	     -2.69618899	      9.77457943	     -8.61941484	      4.44929268	     34.77219765	     90.00000001	      0.00000000	      0.00000000	     -7.46453954	    -11.44487401	     13.80456851	     41.00946197	     90.00000001	      0.00000000	      0.00000000
      2.88000000	     11.09770165	      7.90647459	     -1.50236351	      0.07808946	      0.91194717	      0.28047668	     25.06266882	     -8.10908616	    -21.43333916	     37.49682355	    -11.20372761	      0.65444303	     12.19259327	     15.77358520	     -7.50095961	    -19.61896297	     13.66454460	    -15.30171236	     25.70328313	    -10.89980888	      0.44860692	     22.50319067	     16.33059560	     -7.50095961	    -41.13779927	     -4.73718388	     -2.52347892	      9.83305823	     -8.67818701	      4.56485338	     34.74320284	     90.00000001	      0.00000000	      0.00000000	     -7.58697654	    -11.27019225	     13.70910911	     40.90447610	     90.00000001	      0.00000000	      0.00000000
      2.89000000	     11.06174368	      7.82481126	     -1.80870069	      0.08637642	      0.91374388	      0.28269663	     24.59589980	     -7.60501947	    -19.39675028	     37.99596521	    -10.43014544	      0.66315470	     12.48154130	     12.88228646	     -7.50089390	    -19.72493938	     13.32175886	    -14.51823100	     26.48635789	    -10.26050747	      0.46227415	     20.83618263	     14.61948063	     -7.50089390	    -41.03510087	     -4.71123498	     -2.38788589	      9.92902322	     -8.80988875	      5.09097898	     34.67175397	     90.00000001	      0.00000000	      0.00000000	     -7.63896523	    -10.99695088	     13.32038243	     40.65885405	     90.00000001	      0.00000000	      0.00000000
      2.90000000	     11.10503600	      7.70950331	     -2.04505488	      0.09482659	      0.91555277	      0.28497637	     24.03323748	     -7.24404513	    -18.91468166	     38.25108505	    -10.31793148	      0.66760738	     13.12029154	     12.66513992	     -7.50088403	    -19.72004447	     12.69642486	    -14.59435967	     27.54621727	     -9.67440483	      0.48077219	     19.37714464	     14.54680971	     -7.50088403	    -40.99000854	     -4.64216590	     -2.28043641	      9.95366024	     -8.85467202	      5.15269253	     34.71457053	     90.00000001	      0.00000000	      0.00000000	     -7.74564281	    -10.89465443	     13.31203575	     40.66329087	     90.00000001	      0.00000000	      0.00000000
      2.91000000	     11.10805363	      7.62333850	     -2.27767348	      0.10321579	      0.91722705	      0.28729283	     23.50365650	     -6.94438483	    -18.48074378	     38.48853309	    -10.17294906	      0.67175163	     13.74491003	     12.38246522	     -7.50087609	    -19.57914752	     12.06218343	    -14.73530872	     28.74227784	     -9.03743855	      0.50164738	     17.80871110	     14.36638511	     -7.50087609	    -40.89475503	     -4.60905318	     -2.14840018	     10.01704821	     -8.88258112	      5.23671268	     34.79832711	     90.00000001	      0.00000000	      0.00000000	     -7.80503969	    -10.83145048	     13.30810590	     40.69912108	     90.00000001	      0.00000000	      0.00000000
      2.92000000	     10.99894869	      7.57490694	     -2.51588194	      0.11143892	      0.91866440	      0.28958945	     23.07453592	     -6.58589560	    -17.91811610	     38.60791393	    -10.10729063	      0.67383522	     14.46178294	     11.79244260	     -7.50085969	    -19.11051085	     11.53325133	    -15.14560492	     30.18725336	     -8.67455745	      0.52686696	     15.78385463	     13.56294372	     -7.50085969	    -40.69457182	     -4.63326806	     -2.04752157	      9.99886349	     -8.97897297	      5.44513381	     34.97760083	     90.00000001	      0.00000000	      0.00000000	     -7.87336036	    -10.76033028	     13.33001879	     40.82026408	     90.00000001	      0.00000000	      0.00000000
      2.93000000	     10.91222793	      7.52306817	     -2.66649960	      0.11968850	      0.92007205	      0.29182480	     22.58182597	     -6.41364963	    -17.93976723	     38.67351180	    -10.04917389	      0.67498011	     14.94530074	     11.61787037	     -7.50085027	    -18.63900051	     10.86372804	    -15.21117072	     31.76892813	     -7.95680377	      0.55447240	     14.10719928	     13.09123142	     -7.50085027	    -40.50473903	     -4.62200595	     -2.01641937	      9.97593391	     -9.01667744	      5.58439850	     35.12863709	     90.00000001	      0.00000000	      0.00000000	     -7.92519070	    -10.71904733	     13.37280565	     40.90755746	     90.00000001	      0.00000000	      0.00000000
      2.94000000	     10.79227049	      7.48814374	     -2.80054495	      0.12781792	      0.92125033	      0.29400853	     22.14464997	     -6.25065923	    -18.23685799	     38.68666411	    -10.19833554	      0.67520967	     15.49028105	     11.68463281	     -7.50084069	    -17.95969377	     10.22904981	    -15.41738743	     33.58883169	     -7.37124909	      0.58623570	     12.25503318	     12.22588469	     -7.50084069	    -40.28687288	     -4.62410363	     -1.96252956	      9.94178333	     -9.09069401	      5.73835721	     35.33495036	     90.00000001	      0.00000000	      0.00000000	     -7.93336472	    -10.69636038	     13.44294724	     41.05598585	     90.00000001	      0.00000000	      0.00000000
      2.95000000	     10.67288918	      7.58466218	     -2.89577681	      0.13585791	      0.92237994	      0.29600637	     21.81012106	     -6.41221253	    -19.49291221	     38.70178204	    -10.75193626	      0.67547352	     16.28793242	     13.56978252	     -7.50079176	    -17.31002540	      9.95757949	    -14.34923471	     35.38696511	     -6.42573754	      0.61761905	      9.74206550	      8.31406529	     -7.50079176	    -40.08454468	     -4.74436521	     -1.98721691	      9.74032265	     -9.35472159	      6.49674992	     36.02029624	     90.00000001	      0.00000000	      0.00000000	     -7.92279983	    -10.85713145	     13.87279592	     41.48868904	     90.00000001	      0.00000000	      0.00000000
      2.96000000	     10.57234638	      7.50117534	     -2.91110171	      0.14388339	      0.92335355	      0.29801779	     21.30158715	     -6.31721272	    -20.31271933	     38.62686665	    -10.99103911	      0.67416600	     16.83421044	     13.86546441	     -7.50078355	    -16.45988589	      9.20778713	    -14.38989083	     37.47651405	     -5.74739051	      0.65408856	      8.25668089	      7.66757603	     -7.50078355	    -39.88374247	     -4.65559453	     -1.98829072	      9.74708061	     -9.40328784	      6.57996148	     36.15798726	     90.00000001	      0.00000000	      0.00000000	     -7.87059169	    -10.83629550	     13.94206915	     41.61017702	     90.00000001	      0.00000000	      0.00000000
